<svg xmlns="http://www.w3.org/2000/svg" viewBox="0 0 160 115.88"><g id="Layer_2" data-name="Layer 2"><g id="Layer_4" data-name="Layer 4"><path d="M70.59,100.26a22.69,22.69,0,0,0-3-.15,1.87,1.87,0,0,0-1.66,1l-5.5,11.11a1.12,1.12,0,0,0,.86,1.61l1.43.22a1.19,1.19,0,0,0,1.19-.56l.69-1.2a1.11,1.11,0,0,1,1.14-.54l2.93.44a.85.85,0,0,1,.7.8v.6a1.65,1.65,0,0,0,1.43,1.63l1.11.21a1.15,1.15,0,0,0,1.33-1l1.47-11.45a1.48,1.48,0,0,0-.36-1.19A7.08,7.08,0,0,0,70.59,100.26Zm.24,4.77-1,3.72a.72.72,0,0,1-.84.49l-1.66-.35a.93.93,0,0,1-.7-1.24l.18-.48,1.16.23a1.09,1.09,0,0,0,.75.67,1.34,1.34,0,0,0,1.44-1.19,1.32,1.32,0,0,0-.84-1.65,1.08,1.08,0,0,0-1,.33l-.88-.17.44-1.14a.91.91,0,0,1,1-.56l1.25.25A.87.87,0,0,1,70.83,105Z"/><path d="M44.28,93.86a3.45,3.45,0,0,0-.92-.23,1.87,1.87,0,0,0-1.77.91l-5.37,9a1.65,1.65,0,0,0,.84,2.39l5.19,2a1.73,1.73,0,0,0,2.11-.71l0-.05a1.42,1.42,0,0,0-.72-2l-2.18-.85a.86.86,0,0,1-.44-1.24l4.1-6.93a1.29,1.29,0,0,0,.13-.27A1.45,1.45,0,0,0,44.28,93.86Z"/><path d="M61.51,100.55a.85.85,0,0,0-.58-1.18l-6.41-1.66a1.7,1.7,0,0,0-2,1l-4.26,9.86a1.44,1.44,0,0,0,1,2l6.62,1.72a.89.89,0,0,0,1-.49l.53-1.18a.86.86,0,0,0-.59-1.18l-3.13-.82a.86.86,0,0,1-.59-1.17l.29-.69a.9.9,0,0,1,1.05-.5l2.78.72a.88.88,0,0,0,1-.49l.53-1.18a.86.86,0,0,0-.59-1.18l-2.3-.6a.86.86,0,0,1-.59-1.17l.18-.44a.9.9,0,0,1,1.05-.5l3.39.88a.9.9,0,0,0,1-.49Z"/><path d="M83.54,104.93a3.67,3.67,0,0,1,1.41.36,1.44,1.44,0,0,0,1.71-.36l.3-.33a1.26,1.26,0,0,0-.38-2,7.66,7.66,0,0,0-3-.77c-3.32-.16-5.4,1.42-5.54,4.26s1.76,3.78,3.19,4.39c.78.34,1.45.66,1.42,1.33,0,.51-.48.94-1.76.88a5.88,5.88,0,0,1-2.28-.55,1.38,1.38,0,0,0-1.77.58,1.61,1.61,0,0,0,.68,2.23,7.37,7.37,0,0,0,3.08.81c3.56.17,6.18-1.56,6.33-4.63.12-2.54-1.66-3.59-3.15-4.22-.93-.38-1.56-.73-1.53-1.28S82.84,104.89,83.54,104.93Z"/><path d="M100.88,101.24l-.18,0a2.23,2.23,0,0,0-1.94,2l-.19,2.83a.87.87,0,0,1-.82.8l-2.06.16a.87.87,0,0,1-1-.92l.17-2.65a1.49,1.49,0,0,0,0-.3c-.08-1-.7-1.49-1.81-1.41a2.7,2.7,0,0,0-.41.06,2.18,2.18,0,0,0-1.73,2L90.19,115a.87.87,0,0,0,1,.92l2.22-.17a.87.87,0,0,0,.82-.8l.25-4a.88.88,0,0,1,.82-.81l2-.15a.87.87,0,0,1,1,.92L98,114.37a.87.87,0,0,0,1,.92l2.21-.16a.87.87,0,0,0,.81-.81l.75-11.37a1.59,1.59,0,0,0,0-.31A1.48,1.48,0,0,0,100.88,101.24Z"/><path d="M115.83,110a.89.89,0,0,0-1.11-.75l-3.13.81a.89.89,0,0,1-1.11-.73l-.09-.74a.87.87,0,0,1,.65-.94l2.79-.72a.88.88,0,0,0,.66-.93l-.14-1.28a.89.89,0,0,0-1.11-.74l-2.31.59a.89.89,0,0,1-1.11-.73l-.06-.47a.87.87,0,0,1,.66-.94l3.39-.88a.86.86,0,0,0,.65-.93l0-.35a1.69,1.69,0,0,0-2.12-1.43l-6.18,1.59a.87.87,0,0,0-.66.94l1.46,12a.88.88,0,0,0,1.11.73l6.61-1.7a1.67,1.67,0,0,0,1.26-1.78Z"/><path d="M128.54,98.08c-1.92-3.17-5-3.83-8.65-1.75-.9.52-2.11,1.3-2.88,1.82a.83.83,0,0,0-.31,1l4.8,11.25a.89.89,0,0,0,1.22.44c1-.48,2.34-1.21,3-1.62C130.13,106.74,131.14,102.36,128.54,98.08Zm-3,7.8-1.06.63-.25.14-1.06-2.48,1.24-.65a1.25,1.25,0,0,0,1.17.06,1.5,1.5,0,0,0,.36-2.1,1.57,1.57,0,0,0-2-.86,1.2,1.2,0,0,0-.6,1l-1,.55-1.28-3a1.74,1.74,0,0,1,.3-.2c1.43-.82,2.77-1.62,3.73,0a22.55,22.55,0,0,1,1.67,3.3A3.06,3.06,0,0,1,125.56,105.88Z"/><path d="M57.9,6.7A4.13,4.13,0,0,0,58,6.21c.39-4-3.69-7.1-7.94-6L24.89,6.81a5.91,5.91,0,0,0-4.12,3.64L1.12,65.75a18.74,18.74,0,0,0-1.06,4.9c-1.81,25.52,39.4,33.79,44.78,5.3Z"/><path d="M130.92,69.21c-1.12,6.35-3.29,12.17-8.3,15.67a2.13,2.13,0,0,0-.24,3.4c13.36,11.24,39.08,1.81,37.55-18.51A18.56,18.56,0,0,0,158.88,65L139.23,9.67A5.88,5.88,0,0,0,135.11,6l-9.42-2.46a4.71,4.71,0,0,0-6,4.62c0,.19,0,.37,0,.55V34.32c0,.24,0,.49,0,.73a8.37,8.37,0,0,0,2.38,6.49A21,21,0,0,1,125,45.38C130.39,54.07,132.2,61.94,130.92,69.21Z"/><path d="M94.93,71.52a14.29,14.29,0,0,0,12.69,7.6A14.12,14.12,0,0,0,121.9,65.18a1.59,1.59,0,0,0-1.59-1.57,1.64,1.64,0,0,0-1.61,1.62A11,11,0,0,1,107.62,76a11.1,11.1,0,0,1-9.53-5.34,5,5,0,0,1,1.25-6.42c.16-.14.32-.28.48-.44l8.8-8.59a3.21,3.21,0,0,0-2.33-5.5H81.61a3.21,3.21,0,0,0-2.34,5.5l8.8,8.59a7.23,7.23,0,0,0,.59.53,4.9,4.9,0,0,1,.81,7A13.87,13.87,0,0,1,78.77,76c-7.16,0-13-4.83-13-10.77a1.62,1.62,0,0,0-1.32-1.58,1.59,1.59,0,0,0-1.89,1.54c0,7.69,7.28,13.94,16.22,13.94,6.3,0,11.75-3.11,14.44-7.62A1,1,0,0,1,94.93,71.52Z"/><path d="M76.2,63.92a2,2,0,1,0,2,2A2,2,0,0,0,76.2,63.92Z"/><ellipse cx="82.1" cy="68.7" rx="2.03" ry="1.98"/><ellipse cx="111.84" cy="65.9" rx="2.03" ry="1.98"/><ellipse cx="105.25" cy="68.9" rx="2.03" ry="1.98"/><path d="M71.26,35c2.62,0,4.88-3.17,5.87-7.7a1.71,1.71,0,0,0-.94-1.9L75.34,25a1.65,1.65,0,0,1-.73-.65,1.85,1.85,0,0,1,0-1.77,1.52,1.52,0,0,1,.66-.62l1.33-.71a1.75,1.75,0,0,0,.91-1.71c-.6-5.85-3.18-10.25-6.27-10.25-3.54,0-6.41,5.76-6.41,12.86S67.72,35,71.26,35Z"/><path d="M98.07,35c2.62,0,4.88-3.17,5.87-7.7a1.72,1.72,0,0,0-1-1.9l-.85-.42a1.68,1.68,0,0,1-.72-.65,1.88,1.88,0,0,1,0-1.77,1.6,1.6,0,0,1,.67-.62l1.33-.71a1.75,1.75,0,0,0,.91-1.71c-.6-5.85-3.18-10.25-6.27-10.25-3.54,0-6.41,5.76-6.41,12.86S94.53,35,98.07,35Z"/></g></g></svg>